<svg xmlns="http://www.w3.org/2000/svg" viewBox="0 0 497.2 65.6"><path d="M3.2 62.6c-.4-.4-.7-1.1-.7-1.9V4.3c0-.8.2-1.4.7-1.9.4-.4 1.1-.7 1.9-.7H28c9.1 0 16.6 2.6 22.5 7.7 3.1 2.7 5.5 6.1 7.1 10 1.6 3.9 2.4 8.2 2.4 13s-.8 9-2.5 13-4 7.4-7.1 10.1c-2.8 2.5-6.1 4.4-10 5.7-3.8 1.3-8 2-12.5 2H5.1c-.8 0-1.4-.2-1.9-.7zM28 51.8c12.4 0 18.6-6.4 18.6-19.2S40.4 13.4 28 13.4H15.9v38.3H28zm53.8-24.7h26.9c.8 0 1.4.2 1.9.7.4.4.7 1.1.7 1.9v6.6c0 .8-.2 1.4-.7 1.8-.4.5-1.1.7-1.9.7H81.8v13.1h30.8c.8 0 1.4.2 1.9.7.4.4.7 1.1.7 1.8v6.5c0 .8-.2 1.4-.7 1.9-.4.4-1.1.7-1.9.7H71.1c-.8 0-1.4-.2-1.9-.7-.4-.4-.7-1.1-.7-1.9V4.3c0-.8.2-1.4.7-1.9.4-.4 1.1-.7 1.9-.7h41.5c.8 0 1.4.2 1.9.7.4.5.7 1.1.7 1.9v6.5c0 .8-.2 1.4-.7 1.9-.4.4-1.1.7-1.9.7H81.8v13.7zm58.9 33.7c0 .8-.2 1.4-.7 1.9-.4.4-1.1.7-1.9.7h-8.2c-.8 0-1.4-.2-1.9-.7-.4-.4-.7-1.1-.7-1.9V3.3c0-.4.1-.8.3-1.1.2-.3.5-.4.9-.4.6 0 1.2.3 1.9.8l39.3 34.7V4.4c0-.8.2-1.4.7-1.8.4-.4 1.1-.7 1.9-.7h8.2c.8 0 1.4.2 1.9.7.4.4.7 1.1.7 1.8v56.7c0 .7-.1 1.2-.4 1.6-.3.4-.6.6-1.1.6s-1-.2-1.3-.6l-39.6-34.5v32.5zM240 12.7c-.4.4-1.1.7-1.9.7h-15.3v47.4c0 .8-.2 1.4-.7 1.9-.4.4-1.1.7-1.9.7h-8.3c-.8 0-1.4-.2-1.9-.7-.4-.4-.7-1.1-.7-1.9V13.3h-15.4c-.8 0-1.4-.2-1.9-.7-.4-.4-.7-1.1-.7-1.9V4.2c0-.8.2-1.4.7-1.9.4-.4 1.1-.7 1.9-.7H238c.8 0 1.4.2 1.9.7.4.5.7 1.1.7 1.9v6.5c0 .8-.2 1.4-.7 1.9zm-6.3 50.1c-.4-.3-.6-.7-.6-1.2s.1-.8.4-1.3l30.4-57.1c.5-.9 1.1-1.3 1.8-1.3s1.4.5 1.8 1.3l30.4 57.1c.3.6.4 1 .4 1.3 0 .5-.2.9-.6 1.2-.4.3-.9.5-1.6.5h-9.2c-1.3 0-2.3-.6-2.9-1.9l-4-7.6h-28.7l-3.8 7.6c-.6 1.2-1.5 1.9-2.9 1.9h-9.3c-.7 0-1.2-.2-1.6-.5zm39.8-20.3l-7.9-16.1-7.8 16.1h15.7zm46.1 18.3c0 .8-.2 1.4-.7 1.9-.5.4-1.1.7-1.9.7h-8.2c-.8 0-1.4-.2-1.9-.7-.4-.4-.7-1.1-.7-1.9V3.3c0-.4.1-.8.3-1.1.2-.3.5-.4.9-.4.6 0 1.2.3 1.8.8l39.3 34.7V4.4c0-.8.2-1.4.7-1.8s1.1-.7 1.9-.7h8.2c.8 0 1.4.2 1.9.7.4.4.7 1.1.7 1.8v56.7c0 .7-.1 1.2-.4 1.6-.3.4-.6.6-1.1.6s-1-.2-1.3-.6l-39.6-34.5v32.5zm69.9-.6c-5-2.9-9.1-6.8-12.1-11.7-3-4.9-4.5-10.3-4.5-16s1.5-11 4.4-15.9c2.9-4.9 7-8.8 12.1-11.7C394.4 2 400 .6 406 .6s11.5 1.4 16.6 4.2c5.1 2.8 9.1 6.7 12.2 11.6 3 5 4.5 10.3 4.5 16s-1.5 11-4.5 16c-3 4.9-7 8.8-12.1 11.7S412 64.4 406 64.4s-11.4-1.4-16.5-4.3zm6.6-44.8c-3 1.8-5.5 4.2-7.3 7.3-1.8 3.1-2.7 6.3-2.7 9.8s.9 6.7 2.7 9.8c1.8 3.1 4.2 5.5 7.2 7.4 3 1.8 6.3 2.8 9.9 2.8s6.8-.9 9.9-2.8c3.1-1.9 5.5-4.3 7.3-7.4 1.7-3 2.6-6.2 2.6-9.8s-.9-6.7-2.6-9.8-4.2-5.5-7.2-7.3c-3.1-1.8-6.5-2.7-10-2.7s-6.8.9-9.8 2.7zm98.8 37.1c.4.4.7 1.1.7 1.8v6.5c0 .8-.2 1.4-.7 1.9s-1.1.7-1.8.7h-40.5c-.8 0-1.4-.2-1.9-.7-.4-.4-.7-1.1-.7-1.9V4.3c0-.8.2-1.4.7-1.9.4-.4 1.1-.7 1.9-.7h8.3c.8 0 1.4.2 1.9.7.4.5.7 1.1.7 1.9v47.4h29.7c.8 0 1.4.2 1.8.7z" fill="#5fb0ad"/></svg>